<?xml version="1.0" encoding="UTF-8" standalone="no"?><!DOCTYPE svg PUBLIC "-//W3C//DTD SVG 1.1//EN" "http://www.w3.org/Graphics/SVG/1.1/DTD/svg11.dtd"><svg width="100%" height="100%" viewBox="0 0 770 194" version="1.1" xmlns="http://www.w3.org/2000/svg" xmlns:xlink="http://www.w3.org/1999/xlink" xml:space="preserve" xmlns:serif="http://www.serif.com/" style="fill-rule:evenodd;clip-rule:evenodd;stroke-linejoin:round;stroke-miterlimit:2;"><g id="Logo"><g id="Cube-1" serif:id="Cube 1"><g id="Cube"><path d="M83.746,193.404l83.747,-48.351l-83.747,-48.351l-83.746,48.351l83.746,48.351Z" style="fill:#e1af5e;"/><path d="M0,48.351l0,96.702l83.746,-48.351l0,-96.702l-83.746,48.351Z" style="fill:#e2a747;"/><path d="M167.493,48.351l-0,96.702l-83.747,-48.351l0,-96.702l83.747,48.351Z" style="fill:#e2a747;"/></g><g id="Mini-Cube" serif:id="Mini Cube"><g id="Cube1" serif:id="Cube"><path d="M83.746,67.352l-25.418,14.675l25.418,14.675l25.418,-14.675l-25.418,-14.675Z" style="fill:#3c3c3c;"/><path d="M109.164,111.377l0,-29.35l-25.418,14.675l0,29.35l25.418,-14.675Z" style="fill:#010100;"/><path d="M58.328,111.377l0,-29.35l25.418,14.675l0,29.35l-25.418,-14.675Z" style="fill:#010100;"/></g><path d="M109.164,82.027l32.081,47.448l-57.499,-3.423" style="fill-opacity:0.16;"/></g></g><g transform="matrix(4.31334,0,0,4.31334,-317.368,-698.096)"><text x="118.624px" y="192.802px" style="font-family:'SofiaSans-Regular_Black', 'Sofia Sans';font-size:25px;fill:#111315;">Block</text><text x="177.424px" y="192.802px" style="font-family:'SofiaSans-Italic_Light-Italic', 'Sofia Sans';font-style:italic;font-size:25px;fill:#111315;">Pr<tspan x="199.324px 212.424px 229.924px" y="192.802px 192.802px 192.802px ">oﬀe</tspan>r</text></g></g></svg>